<svg xmlns="http://www.w3.org/2000/svg" viewBox="0 0 128 128">
  <!-- Background -->
  <rect x="0" y="0" width="128" height="128" rx="22" fill="#000000"/>

  <g fill="none" stroke-linecap="round" stroke-linejoin="round">
    
    <!-- LAYER 1: Realistic PCB traces -->
    <g stroke="#3CA0FF" stroke-width="1.2">
      <!-- Power/ground rails along edges -->
      <path d="M12 12 H116"/>
      <path d="M12 116 H116"/>
      <path d="M12 12 V116"/>
      <path d="M116 12 V116"/>
      
      <!-- Main signal traces with characteristic bends -->
      <path d="M18 12 V24 H32 V38"/>
      <path d="M42 12 V18 H56 V28 H68"/>
      <path d="M72 12 H82 V22 H96 V38 H108"/>
      <path d="M108 12 V18"/>
      
      <path d="M12 32 H18 V48 H28"/>
      <path d="M12 52 H16 V68 H24 V82"/>
      <path d="M12 88 H20 V102 H36"/>
      
      <path d="M116 38 H108 V52 H96"/>
      <path d="M116 72 H110 V86 H98 V96"/>
      <path d="M98 116 V108 H82 V94"/>
      
      <!-- Interior traces (will show through letter holes) -->
      <path d="M32 38 H44 V52"/>
      <path d="M36 58 V72 H48"/>
      <path d="M34 82 H46 V92 H52"/>
      <path d="M44 52 H52 V64 H42"/>
      
      <path d="M78 36 V48 H88 V62"/>
      <path d="M82 68 H94 V78"/>
      <path d="M76 82 V94 H88"/>
      <path d="M92 56 H102 V68 H94"/>
      <path d="M86 42 H98"/>
      
      <!-- Center area traces (between N and D) - just horizontal -->
      <path d="M64 36 H70"/>
      <path d="M64 64 H70"/>
      <path d="M64 92 H70"/>
      
      <!-- Cross-board traces -->
      <path d="M36 116 V106 H52 V96"/>
      <path d="M58 116 V108 H72 V98"/>
      <path d="M68 38 V48"/>
      <path d="M62 56 V68"/>
      <path d="M64 78 V88 H74"/>
      
      <!-- Small branch traces -->
      <path d="M18 24 H24"/>
      <path d="M28 48 V56"/>
      <path d="M48 72 H54"/>
      <path d="M24 82 H30"/>
      <path d="M96 52 H102"/>
      <path d="M94 78 V84"/>
      <path d="M82 94 H76"/>
      <path d="M108 18 H114"/>
      
      <!-- Additional connecting traces -->
      <path d="M26 12 V20"/>
      <path d="M88 12 V20 H94"/>
      <path d="M12 64 H18"/>
      <path d="M116 50 H110"/>
      <path d="M44 116 V110"/>
      <path d="M78 116 V108"/>
    </g>
    
    <!-- Extra thin branching traces for complexity -->
    <g stroke="#3CA0FF" stroke-width="0.8">
      <!-- Top area branches -->
      <path d="M24 24 V30 H30"/>
      <path d="M56 28 V34"/>
      <path d="M82 22 V28 H78"/>
      <path d="M96 38 V44 H92"/>
      <path d="M32 12 V16 H38"/>
      <path d="M62 12 V16"/>
      
      <!-- Left side branches -->
      <path d="M18 48 H22 V54"/>
      <path d="M16 68 H20"/>
      <path d="M24 82 V88 H28"/>
      <path d="M20 102 V106"/>
      <path d="M12 44 H16"/>
      <path d="M12 76 H15"/>
      
      <!-- Right side branches -->
      <path d="M108 52 V58 H104"/>
      <path d="M110 86 H106 V90"/>
      <path d="M116 48 H112 V52"/>
      <path d="M116 82 H113"/>
      <path d="M98 96 H94 V100"/>
      
      <!-- Interior N area branches -->
      <path d="M44 52 V58 H40"/>
      <path d="M36 72 H40 V78"/>
      <path d="M46 92 V98"/>
      <path d="M52 64 V70 H56"/>
      <path d="M34 58 H30 V62"/>
      <path d="M48 72 V76"/>
      
      <!-- Interior D area branches -->
      <path d="M88 62 V68 H92"/>
      <path d="M78 48 H82 V52"/>
      <path d="M94 78 H98 V82"/>
      <path d="M76 94 V98 H80"/>
      <path d="M86 42 V46"/>
      <path d="M82 68 V74 H78"/>
      <path d="M92 56 V52 H88"/>
      

      
      <!-- Bottom area branches -->
      <path d="M36 106 H40 V110"/>
      <path d="M52 96 H56 V100"/>
      <path d="M72 98 H76 V102"/>
      <path d="M82 108 V112 H86"/>
      <path d="M64 88 H68 V92"/>
      <path d="M58 108 H62"/>
      
      <!-- Extra cross connections -->
      <path d="M30 30 H34"/>
      <path d="M78 28 V32"/>
      <path d="M40 78 H44"/>
      <path d="M84 74 V78"/>
    </g>
    
    <!-- PCB Vias (small filled circles representing through-holes) -->
    <g fill="#3CA0FF">
      <!-- Along traces - connection points -->
      <circle cx="18" cy="12" r="2"/>
      <circle cx="32" cy="38" r="2"/>
      <circle cx="42" cy="12" r="2"/>
      <circle cx="68" cy="28" r="2"/>
      <circle cx="72" cy="12" r="2"/>
      <circle cx="108" cy="38" r="2"/>
      <circle cx="28" cy="48" r="2"/>
      <circle cx="24" cy="82" r="2"/>
      <circle cx="36" cy="116" r="2"/>
      <circle cx="98" cy="116" r="2"/>
      <circle cx="96" cy="52" r="2"/>
      <circle cx="94" cy="78" r="2"/>
      
      <!-- Interior vias (visible in letter holes) -->
      <circle cx="44" cy="52" r="1.5"/>
      <circle cx="48" cy="72" r="1.5"/>
      <circle cx="36" cy="58" r="1.5"/>
      <circle cx="52" cy="96" r="1.5"/>
      <circle cx="88" cy="62" r="1.5"/>
      <circle cx="82" cy="68" r="1.5"/>
      <circle cx="78" cy="48" r="1.5"/>
      <circle cx="86" cy="42" r="1.5"/>
      <circle cx="76" cy="82" r="1.5"/>
      <circle cx="88" cy="94" r="1.5"/>
      <circle cx="62" cy="68" r="1.5"/>
      <circle cx="64" cy="88" r="1.5"/>
      

    </g>
    
    <!-- Extra small vias for thin branches -->
    <g fill="#3CA0FF">
      <!-- Top area -->
      <circle cx="30" cy="30" r="1"/>
      <circle cx="56" cy="34" r="1"/>
      <circle cx="78" cy="28" r="1"/>
      <circle cx="92" cy="44" r="1"/>
      <circle cx="38" cy="16" r="1"/>
      <circle cx="62" cy="16" r="1"/>
      
      <!-- Left side -->
      <circle cx="22" cy="54" r="1"/>
      <circle cx="20" cy="68" r="1"/>
      <circle cx="28" cy="88" r="1"/>
      <circle cx="20" cy="106" r="1"/>
      <circle cx="16" cy="44" r="1"/>
      <circle cx="15" cy="76" r="1"/>
      
      <!-- Right side -->
      <circle cx="104" cy="58" r="1"/>
      <circle cx="106" cy="90" r="1"/>
      <circle cx="112" cy="52" r="1"/>
      <circle cx="113" cy="82" r="1"/>
      <circle cx="94" cy="100" r="1"/>
      
      <!-- Interior N area -->
      <circle cx="40" cy="58" r="1"/>
      <circle cx="40" cy="78" r="1"/>
      <circle cx="46" cy="98" r="1"/>
      <circle cx="56" cy="70" r="1"/>
      <circle cx="30" cy="62" r="1"/>
      <circle cx="48" cy="76" r="1"/>
      
      <!-- Interior D area -->
      <circle cx="92" cy="68" r="1"/>
      <circle cx="82" cy="52" r="1"/>
      <circle cx="98" cy="82" r="1"/>
      <circle cx="80" cy="98" r="1"/>
      <circle cx="86" cy="46" r="1"/>
      <circle cx="78" cy="74" r="1"/>
      <circle cx="88" cy="52" r="1"/>
      

      
      <!-- Bottom area -->
      <circle cx="40" cy="110" r="1"/>
      <circle cx="56" cy="100" r="1"/>
      <circle cx="76" cy="102" r="1"/>
      <circle cx="86" cy="112" r="1"/>
      <circle cx="68" cy="92" r="1"/>
      <circle cx="62" cy="108" r="1"/>
      
      <!-- Extra cross points -->
      <circle cx="34" cy="30" r="1"/>
      <circle cx="78" cy="32" r="1"/>
      <circle cx="44" cy="78" r="1"/>
      <circle cx="84" cy="78" r="1"/>
    </g>
    
    <!-- PCB Pads (larger squares/circles for component mounting) -->
    <g fill="#3CA0FF">
      <rect x="10" y="10" width="4" height="4" rx="1"/>
      <rect x="114" y="10" width="4" height="4" rx="1"/>
      <rect x="10" y="114" width="4" height="4" rx="1"/>
      <rect x="114" y="114" width="4" height="4" rx="1"/>
      <rect x="54" y="10" width="3" height="3" rx="0.5"/>
      <rect x="10" y="50" width="3" height="3" rx="0.5"/>
      <rect x="10" y="86" width="3" height="3" rx="0.5"/>
      <rect x="114" y="70" width="3" height="3" rx="0.5"/>
      <rect x="56" y="114" width="3" height="3" rx="0.5"/>
      <!-- Additional pads -->
      <rect x="62" y="62" width="3" height="3" rx="0.5"/>
      <rect x="84" y="10" width="3" height="3" rx="0.5"/>
      <rect x="114" y="44" width="3" height="3" rx="0.5"/>
    </g>

    <!-- N left edge accent UNDER the white N -->
    <g stroke="#3CA0FF" stroke-width="4">
      <path d="M24 42 V100"/>
    </g>
    <!-- N diagonal accent UNDER the white N, moved down -->
    <g stroke="#3CA0FF" stroke-width="4">
      <path d="M32 74 L46 102"/>
    </g>
    <!-- N right edge accent UNDER the white N, moved right -->
    <g stroke="#3CA0FF" stroke-width="4">
      <path d="M61 30 V100"/>
    </g>
    <g fill="#3CA0FF">
      <circle cx="24" cy="42" r="3"/>
      <circle cx="24" cy="100" r="3"/>
      <!-- N diagonal top node - behind white N -->
      <circle cx="32" cy="74" r="3"/>
      <!-- N diagonal bottom node - behind white N -->
      <circle cx="46" cy="102" r="3"/>
      <!-- N right edge nodes - behind white N -->
      <circle cx="61" cy="30" r="3"/>
      <circle cx="61" cy="100" r="3"/>
    </g>

    <!-- LAYER 2: White letter strokes (N and D each 50% width, centered in halves) -->
    <g stroke="#FFFFFF" stroke-width="12">
      <!-- N (left half: left side pulled right a bit) -->
      <path d="M16 26 V102"/>
      <path d="M16 26 L54 102"/>
      <path d="M54 26 V102"/>
      <!-- D (right half: arc extended further right) -->
      <path d="M74 26 V102"/>
      <path d="M74 26 C128 32 128 96 74 102"/>
    </g>

    <!-- LAYER 3: Blue accent traces on top (except N right edge) -->
    <g stroke="#3CA0FF" stroke-width="4">
      <!-- D inner arc -->
      <path d="M82 34 C118 42 118 86 82 94"/>
    </g>
  </g>

  <!-- LAYER 4: Primary nodes (letter endpoints) -->
  <g fill="#3CA0FF" stroke="#FFFFFF" stroke-width="3">
    <circle cx="16" cy="26" r="7"/>
    <circle cx="16" cy="102" r="7"/>
    <circle cx="54" cy="26" r="7"/>
    <circle cx="54" cy="102" r="7"/>
    <circle cx="74" cy="26" r="7"/>
    <circle cx="74" cy="102" r="7"/>
    <!-- Node on D arc -->
    <circle cx="114" cy="64" r="7"/>
  </g>

  <!-- Front accent trace nodes -->
  <g fill="#3CA0FF">
    <!-- D accent nodes -->
    <circle cx="82" cy="34" r="3"/>
    <circle cx="82" cy="94" r="3"/>
  </g>
</svg>
